<svg width="182" height="126" viewBox="0 0 182 126" fill="none" xmlns="http://www.w3.org/2000/svg">
<g>
<path d="M86.0278 8.85841C86.1902 9.10703 86.0278 8.85841 88.6793 12.1267C91.3309 15.395 88.6793 33.0158 88.6793 33.0158C89.3009 33.3628 89.9787 33.5969 90.6815 33.7074C91.3927 33.5963 92.0793 33.3622 92.7107 33.0158C92.7107 33.0158 90.7492 14.0931 92.7107 12.1267C93.706 11.1978 94.5653 10.1324 95.2631 8.96237C95.9572 8.00616 96.3314 6.85408 96.3318 5.67147C96.3329 4.78335 96.1257 3.90742 95.7269 3.11438C95.3281 2.32134 94.7488 1.63342 94.0359 1.10617C93.323 0.578919 92.4964 0.22711 91.6228 0.0791553C90.7493 -0.0687991 89.8532 -0.00876525 89.0071 0.254426C88.1609 0.517616 87.3884 0.976588 86.7518 1.59427C86.1152 2.21195 85.6325 2.97104 85.3425 3.81023C85.0525 4.64943 84.9634 5.54522 85.0825 6.42528C85.2015 7.30535 85.5254 8.145 86.0278 8.87648V8.85841Z" fill="#222222"></path>
<path d="M129 61.2639H104.288C102.92 61.2671 101.604 60.737 100.618 59.7857C99.8241 59.0082 98.9537 58.1538 98.0519 57.2316C97.1134 56.2755 96.5589 55.0065 96.494 53.6667C96.4292 52.3269 96.8585 51.0101 97.7001 49.9673C102.737 42.7345 107.806 50.4193 107.806 50.4193V50.3786C108.932 51.7838 110.48 52.7877 112.22 53.2415C113.961 53.6953 115.8 53.5748 117.467 52.898C119.134 52.2212 120.538 51.0241 121.473 49.4841C122.407 47.944 122.822 46.1431 122.655 44.3483C122.408 42.1945 121.366 40.2114 119.733 38.7892C118.101 37.367 115.997 36.6087 113.835 36.6635C111.684 36.6676 109.537 36.8414 107.413 37.1834C103.294 36.9615 99.1956 36.4372 95.1523 35.6148C97.4614 34.817 99.5874 33.563 101.405 31.927C103.222 30.291 104.693 28.3062 105.731 26.0902C106.849 26.8707 108.211 27.2195 109.565 27.0721C110.919 26.9246 112.175 26.2909 113.099 25.288C114.024 24.285 114.555 22.9806 114.595 21.6156C114.635 20.2506 114.181 18.9172 113.316 17.8618C112.452 16.8063 111.236 16.1 109.892 15.8734C108.549 15.6467 107.169 15.915 106.008 16.6287C104.846 17.3424 103.982 18.4532 103.574 19.7561C103.166 21.059 103.242 22.4659 103.788 23.7169C102.498 29.1686 97.2717 32.5092 90.9135 34.5344C84.3343 32.5409 78.8734 29.2093 77.5612 23.6853C78.0371 22.5651 78.1403 21.321 77.8555 20.1375C77.5707 18.9539 76.913 17.8938 75.98 17.1144C75.0469 16.335 73.8882 15.8776 72.6755 15.8103C71.4628 15.7429 70.2607 16.069 69.2475 16.7403C68.2342 17.4116 67.4637 18.3923 67.0501 19.5371C66.6366 20.6819 66.602 21.9298 66.9515 23.0958C67.3011 24.2618 68.0161 25.2839 68.9906 26.0105C69.9651 26.7372 71.1473 27.1297 72.3618 27.1299C73.5243 27.1304 74.6578 26.7669 75.6041 26.0902C76.6528 28.3549 78.1546 30.3794 80.0163 32.0381C81.8781 33.6968 84.0599 34.9542 86.4266 35.7323C82.5334 36.5477 78.5864 37.0795 74.6165 37.3235C72.2223 36.8901 69.7939 36.6737 67.3609 36.6771C65.1989 36.6222 63.0947 37.3805 61.4623 38.8027C59.83 40.2249 58.7877 42.208 58.5405 44.3619C58.3739 46.1542 58.7872 47.9528 59.7191 49.4915C60.651 51.0303 62.0521 52.2276 63.7153 52.9063C65.3785 53.5851 67.2154 53.7093 68.9544 53.2606C70.6935 52.8119 72.2423 51.8142 73.3719 50.4148V50.4555C73.3719 50.4555 78.206 42.73 83.473 50.0034C84.3152 51.0457 84.7453 52.3622 84.6812 53.702C84.6172 55.0418 84.0635 56.3111 83.1258 57.2678C82.2239 58.1719 81.3536 59.0444 80.5554 59.8219C79.5716 60.7737 78.2566 61.3039 76.8893 61.3001H52.029C49.8996 61.3001 47.8574 62.1481 46.3516 63.6575C44.8459 65.1669 44 67.2141 44 69.3488C44 71.4834 44.8459 73.5306 46.3516 75.0401C47.8574 76.5495 49.8996 77.3975 52.029 77.3975H74.125C75.622 77.3987 77.0573 77.9953 78.1158 79.0564C79.1744 80.1176 79.7696 81.5564 79.7708 83.0571V83.0842C79.7392 92.3512 62.9643 87.9166 61.5213 87.9392H61.413C59.2626 87.9668 57.1843 88.7202 55.5135 90.0776C53.8428 91.4351 52.6772 93.3174 52.2048 95.4206C51.9163 96.7942 51.9372 98.2151 52.2661 99.5797C52.5949 100.944 53.2233 102.218 54.1056 103.308C54.9878 104.398 56.1017 105.277 57.3658 105.881C58.63 106.485 60.0127 106.798 61.413 106.799H61.6024C63.8165 106.862 80.357 107.558 84.1178 114.063C83.4968 114.228 82.947 114.593 82.5534 115.102C82.1598 115.611 81.9442 116.235 81.9398 116.879C81.941 117.667 82.2541 118.423 82.8105 118.98C83.3668 119.536 84.1208 119.849 84.907 119.849C85.0152 119.849 85.1054 119.799 85.2091 119.79C85.529 120.997 86.2379 122.065 87.2255 122.826C88.2131 123.588 89.4241 124 90.67 124C91.9159 124 93.1268 123.588 94.1145 122.826C95.1021 122.065 95.811 120.997 96.1308 119.79C96.2421 119.82 96.3551 119.843 96.4691 119.858C97.2552 119.858 98.0093 119.545 98.5656 118.989C99.1219 118.432 99.435 117.676 99.4362 116.888C99.4299 116.199 99.1821 115.535 98.736 115.011C98.29 114.487 97.6742 114.137 96.9967 114.022C100.365 108.024 114.583 107.002 118.642 106.835L119.476 106.803C121.971 106.803 124.363 105.81 126.127 104.041C127.892 102.273 128.883 99.8743 128.883 97.3734C128.883 94.8725 127.892 92.474 126.127 90.7056C124.363 88.9372 121.971 87.9437 119.476 87.9437H119.246C117.167 87.8624 101.551 92.1522 101.583 83.039C101.584 82.2891 101.734 81.5469 102.022 80.8548C102.31 80.1627 102.732 79.5344 103.262 79.0058C103.793 78.4772 104.422 78.0587 105.115 77.7742C105.807 77.4897 106.548 77.3448 107.296 77.3477H129.343C130.463 77.3474 131.571 77.112 132.596 76.6566C133.62 76.2012 134.538 75.536 135.291 74.7036C136.044 73.8712 136.614 72.8902 136.966 71.8236C137.318 70.7569 137.443 69.6283 137.333 68.5102C137.079 66.4853 136.088 64.6257 134.55 63.2884C133.012 61.9511 131.035 61.2301 129 61.2639ZM87.7479 61.2639C88.6498 60.3598 89.6328 59.3382 90.6114 58.2623C91.5944 59.3382 92.5684 60.3689 93.4793 61.2639H87.7479ZM95.1658 43.1368C94.1894 44.1965 93.2997 45.3333 92.5053 46.5362C91.9191 47.3499 91.2742 48.1681 90.6114 48.9908C89.953 48.1681 89.3307 47.047 88.7399 46.2334C87.9727 45.0984 87.0735 44.0589 86.0614 43.1368C84.4769 41.5516 82.6387 40.2436 80.6231 39.2673C84.0434 38.8436 87.4253 38.1514 90.7376 37.1969C94.0588 38.1183 97.4466 38.7788 100.87 39.1724C98.7634 40.162 96.8392 41.5025 95.1794 43.1368H95.1658Z" fill="#222222"></path>
</g>
<defs>
<clipPath id="clip0_168_1035">
<rect width="182" height="170" fill="white"></rect>
</clipPath>
</defs>
</svg>