<svg width="331" height="66" viewBox="0 0 331 66" fill="none" xmlns="http://www.w3.org/2000/svg">
<g clip-path="url(#clip0_168_995)">
<mask id="mask0_168_995" style="mask-type:luminance" maskUnits="userSpaceOnUse" x="0" y="0" width="331" height="66">
<path d="M331 0H0V66H331V0Z" fill="white"></path>
</mask>
<g mask="url(#mask0_168_995)">
<path d="M105.6 26.3998C103 26.1998 100.4 26.8998 98.1 28.1998C95.8 29.4998 94 31.4998 92.8 33.7998C91.7 31.4998 90 29.5998 87.8 28.2998C85.6 26.9998 83.1 26.2998 80.6 26.3998C78.4 26.3998 76.3 26.6998 74.3 27.5998C72.3 28.4998 70.6 29.8998 69.3 31.5998V27.0998H63.3V63.0998H69.3V43.1998C69.5 32.9998 77.4 32.1998 79.8 32.1998C85.2 32.1998 88.7 36.1998 88.7 42.4998V63.1998H94.6V44.7998C94.4 43.0998 94.6 41.2998 95 39.6998C95.5 37.9998 96.3 36.4998 97.5 35.1998C98.4 34.2998 99.5 33.4998 100.8 32.9998C102 32.4998 103.4 32.2998 104.7 32.2998H104.8C110.3 32.2998 113.9 36.2998 113.9 42.5998V63.2998H119.8V42.3998C119.8 32.5998 114.3 26.4998 105.5 26.4998L105.6 26.3998Z" fill="#7DB72D"></path>
<path d="M133.2 27.2H127.3V63.2H133.2V27.2Z" fill="#7DB72D"></path>
<path d="M130.2 10.8999C129.4 10.8999 128.7 11.2999 128.1 11.6999C127.5 12.1999 127 12.7999 126.8 13.5999C126.5 14.2999 126.5 15.0999 126.7 15.8999C126.9 16.6999 127.3 17.2999 127.9 17.8999C128.5 18.3999 129.2 18.7999 129.9 18.8999C130.7 18.9999 131.4 18.8999 132.2 18.5999C132.9 18.2999 133.5 17.7999 133.9 17.0999C134.3 16.4999 134.6 15.6999 134.6 14.8999C134.6 14.2999 134.5 13.7999 134.3 13.2999C134.1 12.7999 133.8 12.2999 133.4 11.9999C133 11.5999 132.5 11.2999 132 11.0999C131.5 10.8999 130.9 10.7999 130.4 10.8999H130.2Z" fill="#7DB72D"></path>
<path d="M158.3 26.3999C156.1 26.3999 154 26.7999 152 27.6999C150 28.5999 148.3 29.9999 146.9 31.6999V27.0999H141V63.0999H146.9V43.1999C146.9 41.6999 147 40.2999 147.6 38.8999C148.1 37.4999 148.9 36.2999 150 35.1999C151 34.1999 152.3 33.3999 153.7 32.7999C155.1 32.2999 156.5 32.0999 158 32.1999C163.5 32.1999 167.2 36.2999 167.2 42.3999V63.0999H173.2V42.1999C173.2 32.5999 167.4 26.2999 158.5 26.2999L158.3 26.3999Z" fill="#7DB72D"></path>
<path d="M188.4 13.2999H182.5V27.1999H176.2V32.4999H182.5V63.1999H188.4V32.4999H196.3V27.1999H188.4V13.2999Z" fill="#7DB72D"></path>
<path d="M226.9 9.99988C221.6 9.99988 216.3 11.3999 211.9 14.2999C207.4 17.1999 203.9 21.3999 201.8 26.2999C199.7 31.1999 199.1 36.5999 200.1 41.8999C201.1 47.1999 203.6 51.9999 207.3 55.7999C211 59.5999 215.8 62.1999 221 63.2999C226.2 64.3999 231.6 63.8999 236.6 61.8999C241.5 59.8999 245.7 56.3999 248.7 51.9999C251.7 47.5999 253.3 42.2999 253.3 36.9999C253.3 33.4999 252.7 29.9999 251.4 26.6999C250.1 23.3999 248.2 20.3999 245.7 17.8999C243.2 15.3999 240.3 13.3999 237.1 11.9999C233.9 10.5999 230.4 9.89988 226.9 9.99988ZM247.2 36.9999C247.2 39.6999 246.8 42.4999 245.8 44.9999C244.8 47.5999 243.3 49.8999 241.4 51.7999C239.5 53.7999 237.2 55.2999 234.7 56.3999C232.2 57.4999 229.5 57.9999 226.8 57.9999C224.1 57.9999 221.4 57.4999 218.9 56.3999C216.4 55.2999 214.1 53.7999 212.2 51.7999C210.3 49.7999 208.8 47.4999 207.8 44.9999C206.8 42.3999 206.4 39.6999 206.4 36.9999C206.4 34.2999 206.8 31.4999 207.7 28.9999C208.7 26.3999 210.2 24.0999 212.1 22.0999C214 20.0999 216.3 18.5999 218.8 17.4999C221.3 16.3999 224 15.8999 226.7 15.8999C229.4 15.8999 232.1 16.4999 234.6 17.4999C237.1 18.5999 239.4 20.0999 241.3 22.0999C243.2 24.0999 244.7 26.3999 245.7 28.9999C246.7 31.5999 247.1 34.2999 247 36.9999H247.2Z" fill="#7DB72D"></path>
<path d="M288.1 32.4999C286.5 30.4999 284.5 28.9999 282.2 27.8999C279.9 26.8999 277.4 26.2999 274.9 26.3999C272.5 26.3999 270.1 26.7999 267.8 27.7999C265.6 28.6999 263.5 30.0999 261.8 31.8999C260.1 33.5999 258.8 35.6999 257.9 37.9999C257 40.2999 256.6 42.6999 256.7 45.1999C256.7 47.5999 257.1 50.0999 258 52.2999C258.9 54.5999 260.2 56.5999 261.9 58.3999C263.6 60.1999 265.6 61.4999 267.9 62.4999C270.1 63.4999 272.5 63.8999 275 63.9999C277.5 63.9999 280 63.4999 282.3 62.4999C284.6 61.3999 286.6 59.8999 288.2 57.8999V63.2999H294.2V27.1999H288.2V32.4999H288.1ZM288.1 45.2999C288.1 46.9999 287.8 48.6999 287.2 50.2999C286.6 51.8999 285.6 53.2999 284.4 54.4999C283.2 55.6999 281.8 56.6999 280.2 57.2999C278.6 57.8999 276.9 58.1999 275.2 58.1999C272.6 58.1999 270.1 57.4999 268 56.0999C265.9 54.6999 264.2 52.6999 263.2 50.2999C262.2 47.8999 261.9 45.2999 262.4 42.7999C262.9 40.2999 264.1 37.8999 265.9 36.0999C267.7 34.2999 270 32.9999 272.6 32.4999C275.1 31.9999 277.7 32.2999 280.1 33.2999C282.5 34.2999 284.5 35.9999 285.9 38.0999C287.3 40.2999 288.1 42.7999 288 45.3999L288.1 45.2999Z" fill="#7DB72D"></path>
<path d="M311.2 42.8999L326.6 27.1999H318.3L306.2 39.6999V7.59985H300.2V63.1999H306.2V46.1999L322.9 63.1999H331L311.2 42.8999Z" fill="#7DB72D"></path>
<path d="M22.2999 4.6999C22.2999 4.7999 22.3 4.6999 23.7 6.3999C25.1 8.0999 23.7 17.4999 23.7 17.4999C24 17.6999 24.3999 17.7999 24.7999 17.8999C25.1999 17.8999 25.4999 17.6999 25.9 17.4999C25.9 17.4999 24.9 7.3999 25.9 6.3999C26.4 5.8999 26.8999 5.2999 27.2999 4.6999C27.6999 4.1999 27.9 3.5999 27.9 2.8999C27.9 2.3999 27.8 1.9999 27.6 1.4999C27.4 1.0999 27.1 0.699902 26.7 0.399902C26.3 0.0999023 25.9 -0.100098 25.4 -0.100098C24.9 -0.100098 24.5 -0.100098 24 -0.100098C23.6 -9.76548e-05 23.0999 0.299902 22.7999 0.599902C22.4999 0.899902 22.2 1.2999 22.1 1.7999C21.9 2.1999 21.9 2.6999 22 3.1999C22 3.6999 22.2 4.0999 22.5 4.4999L22.2999 4.6999Z" fill="url(#paint0_linear_168_995)"></path>
<path d="M45.2 32.6H32.1C31.4 32.6 30.7 32.3 30.1 31.8C29.7 31.4 29.2 30.9 28.7 30.4C28.2 29.9 27.9 29.2 27.9 28.5C27.9 27.8 28.1 27.1 28.5 26.5C31.2 22.6 33.9 26.7 33.9 26.7C34.5 27.4 35.3 28 36.2 28.2C37.1 28.4 38.1 28.4 39 28C39.9 27.6 40.6 27 41.1 26.2C41.6 25.4 41.8 24.4 41.7 23.5C41.6 22.4 41 21.3 40.1 20.5C39.2 19.7 38.1 19.3 37 19.4C35.9 19.4 34.7 19.4 33.6 19.7C31.4 19.6 29.2 19.3 27.1 18.9C28.3 18.5 29.5 17.8 30.4 16.9C31.4 16 32.1 15 32.7 13.8C33.3 14.2 34 14.4 34.7 14.3C35.4 14.3 36.1 13.9 36.6 13.4C37.1 12.9 37.4 12.2 37.4 11.4C37.4 10.7 37.2 9.99998 36.7 9.39998C36.2 8.79998 35.6 8.49998 34.9 8.29998C34.2 8.19998 33.5 8.29998 32.8 8.69998C32.2 9.09998 31.7 9.69998 31.5 10.4C31.3 11.1 31.3 11.8 31.6 12.5C30.9 15.4 28.1 17.2 24.8 18.3C21.3 17.2 18.4 15.5 17.7 12.5C18 11.9 18 11.2 17.9 10.6C17.7 9.99998 17.4 9.39998 16.9 8.99998C16.4 8.59998 15.8 8.29998 15.1 8.29998C14.5 8.29998 13.8 8.39998 13.3 8.79998C12.8 9.19998 12.4 9.69998 12.1 10.3C11.9 10.9 11.9 11.6 12.1 12.2C12.3 12.8 12.7 13.4 13.2 13.8C13.7 14.2 14.3 14.4 15 14.4C15.6 14.4 16.2 14.2 16.7 13.8C17.3 15 18.1 16.1 19 17C20 17.9 21.1 18.6 22.4 19C20.3 19.4 18.2 19.7 16.1 19.8C14.8 19.6 13.5 19.5 12.2 19.5C11.1 19.5 9.89998 19.9 9.09998 20.6C8.19998 21.4 7.69998 22.4 7.49998 23.6C7.49998 24.6 7.59998 25.5 8.09998 26.3C8.59998 27.1 9.29998 27.8 10.2 28.1C11.1 28.5 12.1 28.5 13 28.3C13.9 28.1 14.7 27.5 15.3 26.8C15.3 26.8 17.9 22.7 20.7 26.6C21.1 27.2 21.4 27.9 21.3 28.6C21.3 29.3 21 30 20.5 30.5C20 31 19.6 31.4 19.1 31.9C18.6 32.4 17.9 32.7 17.2 32.7H4.29998C3.19998 32.7 2.09998 33.2 1.29998 34C0.499976 34.8 0.0999756 35.9 0.0999756 37C0.0999756 38.1 0.499976 39.2 1.29998 40C2.09998 40.8 3.19998 41.3 4.29998 41.3H16C16.8 41.3 17.6 41.6 18.1 42.2C18.7 42.8 19 43.5 19 44.3C19 49.2 10.1 46.9 9.29998 46.9C8.19998 46.9 7.09998 47.3 6.19998 48C5.29998 48.7 4.69998 49.7 4.39998 50.8C4.19998 51.5 4.29998 52.3 4.39998 53C4.59998 53.7 4.89998 54.4 5.39998 55C5.89998 55.6 6.49998 56 7.09998 56.4C7.69998 56.8 8.49998 56.9 9.29998 56.9H9.39997C10.6 56.9 19.4 57.3 21.4 60.8C21.1 60.8 20.8 61.1 20.6 61.4C20.4 61.7 20.3 62 20.3 62.3C20.3 62.7 20.5 63.1 20.8 63.4C21.1 63.7 21.5 63.9 21.9 63.9C22.3 63.9 22 63.9 22.1 63.9C22.3 64.5 22.6 65.1 23.2 65.5C23.7 65.9 24.4 66.1 25 66.1C25.6 66.1 26.3 65.9 26.8 65.5C27.3 65.1 27.7 64.5 27.9 63.9C27.9 63.9 28 63.9 28.1 63.9C28.5 63.9 28.9 63.7 29.2 63.4C29.5 63.1 29.7 62.7 29.7 62.3C29.7 61.9 29.6 61.6 29.3 61.3C29.1 61 28.7 60.8 28.4 60.8C30.2 57.6 37.7 57.1 39.9 57H40.3C41.6 57 42.9 56.5 43.8 55.5C44.7 54.6 45.3 53.3 45.3 52C45.3 50.7 44.8 49.4 43.8 48.5C42.9 47.6 41.6 47 40.3 47H40.2C39.1 47 30.8 49.2 30.8 44.4C30.8 44 30.8 43.6 31 43.2C31.2 42.8 31.4 42.5 31.7 42.2C32 41.9 32.3 41.7 32.7 41.5C33.1 41.3 33.5 41.3 33.9 41.3H45.6C46.2 41.3 46.8 41.2 47.3 40.9C47.8 40.7 48.3 40.3 48.7 39.9C49.1 39.5 49.4 38.9 49.6 38.4C49.8 37.8 49.9 37.2 49.8 36.6C49.7 35.5 49.1 34.5 48.3 33.8C47.5 33.1 46.4 32.7 45.3 32.7L45.2 32.6ZM23.3 32.6C23.8 32.1 24.3 31.6 24.8 31C25.3 31.6 25.8 32.1 26.3 32.6H23.3ZM27.2 23C26.7 23.6 26.2 24.2 25.8 24.8C25.5 25.2 25.1 25.7 24.8 26.1C24.4 25.7 24.1 25.1 23.8 24.6C23.4 24 22.9 23.4 22.4 23C21.6 22.2 20.6 21.5 19.5 20.9C21.3 20.7 23.1 20.3 24.9 19.8C26.7 20.3 28.5 20.6 30.3 20.9C29.2 21.4 28.2 22.1 27.3 23H27.2Z" fill="url(#paint1_linear_168_995)"></path>
</g>
</g>
<defs>
<linearGradient id="paint0_linear_168_995" x1="24.8" y1="66.1999" x2="24.8" y2="0.399901" gradientUnits="userSpaceOnUse">
<stop stop-color="#88BA2A"></stop>
<stop offset="0.1" stop-color="#6BB22E"></stop>
<stop offset="0.3" stop-color="#57AC32"></stop>
<stop offset="0.4" stop-color="#4BA934"></stop>
<stop offset="0.5" stop-color="#47A835"></stop>
<stop offset="1" stop-color="#45A735"></stop>
</linearGradient>
<linearGradient id="paint1_linear_168_995" x1="24.8" y1="66.2" x2="24.8" y2="0.399986" gradientUnits="userSpaceOnUse">
<stop stop-color="#88BA2A"></stop>
<stop offset="0.1" stop-color="#6BB22E"></stop>
<stop offset="0.3" stop-color="#57AC32"></stop>
<stop offset="0.4" stop-color="#4BA934"></stop>
<stop offset="0.5" stop-color="#47A835"></stop>
<stop offset="1" stop-color="#45A735"></stop>
</linearGradient>
<clipPath id="clip0_168_995">
<rect width="331" height="66" fill="white"></rect>
</clipPath>
</defs>
</svg>