<svg width="182" height="126" viewBox="0 0 182 126" fill="none" xmlns="http://www.w3.org/2000/svg">
<g>
<path d="M86 8.90002C86.2 9.10002 86 8.90002 88.7 12.2C91.4 15.5 88.7 33.1 88.7 33.1C89.3 33.4 90 33.7 90.7 33.8C91.4 33.7 92.1 33.5 92.7 33.1C92.7 33.1 90.7 14.2 92.7 12.2C93.7 11.3 94.6 10.2 95.3 9.00002C96 8.00002 96.4 6.90002 96.4 5.70002C96.4 4.80002 96.2 3.90002 95.8 3.10002C95.4 2.30002 94.8 1.60002 94.1 1.10002C93.4 0.600021 92.6 0.200022 91.7 0.100022C90.8 2.14987e-05 89.9 0.100022 89.1 0.300022C88.3 0.600022 87.5 1.00002 86.8 1.60002C86.2 2.20002 85.7 3.00002 85.4 3.80002C85.1 4.60002 85 5.50002 85.1 6.40002C85.2 7.30002 85.5 8.10002 86 8.90002Z" fill="url(#paint0_linear_168_981)"></path>
<path d="M129 61.2999H104.3C102.9 61.2999 101.6 60.7999 100.6 59.7999C99.8 58.9999 98.9 58.1999 98 57.1999C97.1 56.1999 96.5 54.9999 96.4 53.5999C96.4 52.2999 96.8 50.8999 97.6 49.8999C102.6 42.6999 107.7 50.3999 107.7 50.3999C108.8 51.7999 110.4 52.7999 112.1 53.1999C113.8 53.6999 115.7 53.4999 117.3 52.8999C118.9 52.2999 120.4 50.9999 121.3 49.4999C122.2 47.9999 122.6 46.1999 122.5 44.3999C122.3 42.1999 121.2 40.2999 119.6 38.7999C118 37.3999 115.9 36.5999 113.7 36.6999C111.5 36.6999 109.4 36.8999 107.3 37.1999C103.2 36.9999 99.1 36.4999 95 35.5999C97.3 34.7999 99.4 33.4999 101.3 31.8999C103.1 30.2999 104.6 28.2999 105.6 26.0999C106.7 26.8999 108.1 27.1999 109.4 27.0999C110.8 26.9999 112 26.2999 112.9 25.2999C113.8 24.2999 114.4 22.9999 114.4 21.5999C114.4 20.1999 114 18.8999 113.1 17.7999C112.2 16.6999 111 15.9999 109.7 15.7999C108.4 15.5999 107 15.7999 105.8 16.5999C104.6 17.2999 103.8 18.3999 103.4 19.6999C103 20.9999 103.1 22.3999 103.6 23.6999C102.3 29.1999 97.1 32.4999 90.7 34.4999C84.1 32.4999 78.7 29.1999 77.3 23.6999C77.8 22.5999 77.9 21.2999 77.6 20.1999C77.3 18.9999 76.7 17.9999 75.7 17.1999C74.8 16.3999 73.6 15.9999 72.4 15.8999C71.2 15.8999 70 16.1999 69 16.7999C68 17.4999 67.2 18.4999 66.8 19.5999C66.4 20.6999 66.4 21.9999 66.8 23.1999C67.1 24.3999 67.9 25.3999 68.8 26.0999C69.8 26.7999 71 27.1999 72.2 27.1999C73.4 27.1999 74.5 26.7999 75.4 26.1999C76.4 28.4999 78 30.4999 79.8 32.0999C81.7 33.7999 83.8 34.9999 86.2 35.7999C82.3 36.5999 78.4 37.0999 74.4 37.3999C72 36.9999 69.6 36.7999 67.1 36.7999C64.9 36.7999 62.8 37.4999 61.2 38.8999C59.6 40.2999 58.5 42.2999 58.3 44.4999C58.1 46.2999 58.5 48.0999 59.5 49.5999C60.4 51.0999 61.8 52.2999 63.5 52.9999C65.2 53.6999 67 53.7999 68.7 53.3999C70.4 52.9999 72 51.9999 73.1 50.5999C73.1 50.5999 77.9 42.8999 83.2 50.1999C84 51.1999 84.5 52.5999 84.4 53.8999C84.4 55.1999 83.8 56.4999 82.8 57.4999C81.9 58.3999 81 59.2999 80.2 60.0999C79.2 61.0999 77.9 61.5999 76.5 61.5999H51.6C49.5 61.5999 47.4 62.3999 45.9 63.9999C44.4 65.4999 43.5 67.5999 43.5 69.6999C43.5 71.7999 44.3 73.8999 45.9 75.3999C47.4 76.8999 49.4 77.7999 51.6 77.7999H73.7C75.2 77.7999 76.6 78.3999 77.7 79.4999C78.8 80.5999 79.4 81.9999 79.4 83.4999C79.4 92.7999 62.6 88.3999 61.2 88.3999H61.1C58.9 88.3999 56.9 89.1999 55.2 90.4999C53.5 91.8999 52.4 93.6999 51.9 95.7999C51.6 97.1999 51.6 98.5999 51.9 99.9999C52.2 101.4 52.9 102.6 53.7 103.7C54.6 104.8 55.7 105.7 57 106.3C58.3 106.9 59.6 107.2 61 107.2H61.2C63.4 107.2 80 108 83.7 114.5C83.1 114.7 82.5 115 82.1 115.5C81.7 116 81.5 116.6 81.5 117.3C81.5 118.1 81.8 118.8 82.4 119.4C83 120 83.7 120.3 84.5 120.3C85.3 120.3 84.7 120.3 84.8 120.3C85.1 121.5 85.8 122.6 86.8 123.3C87.8 124.1 89 124.5 90.2 124.5C91.4 124.5 92.7 124.1 93.6 123.3C94.6 122.5 95.3 121.5 95.6 120.3C95.7 120.3 95.8 120.3 95.9 120.3C96.7 120.3 97.4 120 98 119.4C98.6 118.8 98.9 118.1 98.9 117.3C98.9 116.6 98.6 115.9 98.2 115.4C97.8 114.9 97.1 114.5 96.5 114.4C99.9 108.4 114.1 107.4 118.1 107.2H118.9C121.4 107.2 123.8 106.2 125.6 104.4C127.4 102.6 128.4 100.2 128.4 97.6999C128.4 95.1999 127.4 92.7999 125.6 90.9999C123.8 89.1999 121.4 88.1999 118.9 88.1999H118.7C116.6 88.1999 101 92.3999 101 83.2999C101 82.5999 101.2 81.7999 101.4 81.0999C101.7 80.3999 102.1 79.7999 102.6 79.2999C103.1 78.7999 103.8 78.3999 104.5 78.0999C105.2 77.7999 105.9 77.6999 106.7 77.6999H128.7C129.8 77.6999 130.9 77.4999 132 76.9999C133 76.4999 133.9 75.8999 134.7 74.9999C135.5 74.1999 136 73.1999 136.4 72.0999C136.8 70.9999 136.9 69.8999 136.8 68.7999C136.5 66.7999 135.6 64.8999 134 63.5999C132.5 62.2999 130.5 61.4999 128.4 61.5999L129 61.2999ZM87.7 61.2999C88.6 60.3999 89.6 59.3999 90.6 58.2999C91.6 59.3999 92.6 60.3999 93.5 61.2999H87.8H87.7ZM95.2 43.0999C94.2 44.1999 93.3 45.2999 92.5 46.4999C91.9 47.2999 91.3 48.0999 90.6 48.9999C89.9 48.1999 89.3 47.0999 88.7 46.1999C87.9 45.0999 87 43.9999 86 43.0999C84.4 41.4999 82.6 40.1999 80.6 39.1999C84 38.7999 87.4 38.0999 90.7 37.0999C94 37.9999 97.4 38.6999 100.8 39.0999C98.7 40.0999 96.8 41.3999 95.1 43.0999H95.2Z" fill="url(#paint1_linear_168_981)"></path>
</g>
<defs>
<linearGradient id="paint0_linear_168_981" x1="90.7" y1="124.2" x2="90.7" y2="0.700021" gradientUnits="userSpaceOnUse">
<stop stop-color="#88BA2A"></stop>
<stop offset="0.1" stop-color="#6BB22E"></stop>
<stop offset="0.3" stop-color="#57AC32"></stop>
<stop offset="0.4" stop-color="#4BA934"></stop>
<stop offset="0.5" stop-color="#47A835"></stop>
<stop offset="1" stop-color="#45A735"></stop>
</linearGradient>
<linearGradient id="paint1_linear_168_981" x1="90.7" y1="124.2" x2="90.7" y2="0.699919" gradientUnits="userSpaceOnUse">
<stop stop-color="#88BA2A"></stop>
<stop offset="0.1" stop-color="#6BB22E"></stop>
<stop offset="0.3" stop-color="#57AC32"></stop>
<stop offset="0.4" stop-color="#4BA934"></stop>
<stop offset="0.5" stop-color="#47A835"></stop>
<stop offset="1" stop-color="#45A735"></stop>
</linearGradient>
<clipPath id="clip0_168_981">
<rect width="182" height="170" fill="white"></rect>
</clipPath>
</defs>
</svg>