<svg width="331" height="67" viewBox="0 0 331 67" fill="none" xmlns="http://www.w3.org/2000/svg">
<g clip-path="url(#clip0_168_1013)">
<path d="M105.637 26.4383C103.024 26.2872 100.423 26.9068 98.1559 28.2209C95.8885 29.5349 94.0534 31.486 92.8764 33.8339C91.7847 31.5445 90.0508 29.625 87.8878 28.3112C85.7247 26.9974 83.2266 26.3464 80.7002 26.4383C78.5415 26.3458 76.392 26.7718 74.4302 27.681C72.4684 28.5901 70.7509 29.9561 69.4205 31.6655V27.182H63.457V63.2023H69.4085V43.3041C69.5907 33.059 77.462 32.2624 79.8709 32.2624C85.2807 32.2624 88.7753 36.2984 88.7753 42.546V63.2023H94.6525V44.8323H94.7268C94.5124 43.1054 94.6573 41.3525 95.1524 39.6847C95.6475 38.0169 96.482 36.4704 97.603 35.1432C98.5333 34.1934 99.6497 33.4479 100.882 32.9537C102.114 32.4595 103.434 32.2274 104.76 32.272H104.902C110.448 32.272 114.029 36.308 114.029 42.5556V63.2119H119.961V42.3222C119.961 32.5199 114.477 26.4383 105.637 26.4383Z" fill="#222222"></path>
<path d="M133.183 27.1816H127.234V63.202H133.183V27.1816Z" fill="#222222"></path>
<path d="M130.213 10.9309C129.442 10.9944 128.707 11.2815 128.095 11.7573C127.484 12.2331 127.024 12.877 126.771 13.6107C126.517 14.3444 126.482 15.1362 126.669 15.8897C126.856 16.6432 127.257 17.3259 127.823 17.8547C128.389 18.3835 129.097 18.7356 129.859 18.8681C130.621 19.0006 131.404 18.9078 132.115 18.6011C132.825 18.2943 133.432 17.7868 133.86 17.1402C134.288 16.4937 134.52 15.7361 134.527 14.9597C134.52 14.4068 134.401 13.8612 134.178 13.3558C133.954 12.8504 133.631 12.3957 133.228 12.0192C132.825 11.6426 132.35 11.3521 131.832 11.165C131.313 10.978 130.763 10.8984 130.213 10.9309Z" fill="#222222"></path>
<path d="M158.278 26.4371C156.096 26.3885 153.931 26.8418 151.95 27.7624C149.968 28.683 148.223 30.0465 146.847 31.7486V27.176H140.898V63.2011H146.847V43.3029C146.757 41.8338 146.979 40.3621 147.499 38.986C148.02 37.61 148.827 36.3613 149.866 35.3233C150.906 34.2853 152.154 33.4819 153.527 32.9667C154.9 32.4515 156.367 32.2365 157.83 32.3358C163.343 32.3358 167.032 36.4392 167.032 42.5449V63.2011H172.986V42.321C172.986 32.6728 167.211 26.4371 158.278 26.4371Z" fill="#222222"></path>
<path d="M188.424 13.3145H182.549V27.1816H176.238V32.4762H182.549V63.2019H188.424V32.4882H196.367V27.1936H188.424V13.3145Z" fill="#222222"></path>
<path d="M226.884 10.0344C221.559 9.95275 216.331 11.463 211.864 14.373C207.396 17.283 203.892 21.4614 201.796 26.3767C199.7 31.292 199.107 36.7221 200.093 41.9765C201.079 47.2309 203.599 52.0721 207.333 55.8846C211.066 59.697 215.845 62.3084 221.061 63.3865C226.277 64.4647 231.694 63.961 236.624 61.9395C241.554 59.9179 245.773 56.4699 248.746 52.0338C251.719 47.5978 253.311 42.3742 253.319 37.0274C253.386 33.5019 252.752 29.9985 251.453 26.7225C250.154 23.4465 248.216 20.4639 245.754 17.9497C243.292 15.4355 240.355 13.4403 237.114 12.0811C233.874 10.7219 230.396 10.0261 226.884 10.0344ZM247.221 37.0274C247.305 39.7621 246.841 42.4859 245.856 45.037C244.872 47.5882 243.387 49.9149 241.49 51.879C239.593 53.8431 237.322 55.4047 234.813 56.4711C232.304 57.5375 229.606 58.087 226.881 58.087C224.157 58.087 221.459 57.5375 218.95 56.4711C216.441 55.4047 214.17 53.8431 212.273 51.879C210.376 49.9149 208.891 47.5882 207.907 45.037C206.922 42.4859 206.458 39.7621 206.542 37.0274C206.448 34.2864 206.905 31.5546 207.885 28.9946C208.865 26.4346 210.348 24.0989 212.246 22.1266C214.144 20.1544 216.418 18.5859 218.932 17.5146C221.447 16.4434 224.15 15.8913 226.881 15.8913C229.613 15.8913 232.316 16.4434 234.831 17.5146C237.345 18.5859 239.619 20.1544 241.517 22.1266C243.415 24.0989 244.898 26.4346 245.878 28.9946C246.858 31.5546 247.315 34.2864 247.221 37.0274Z" fill="#222222"></path>
<path d="M288.058 32.4921C286.458 30.5418 284.437 28.983 282.148 27.9338C279.859 26.8847 277.362 26.3728 274.846 26.437C272.412 26.4115 269.997 26.8816 267.749 27.8191C265.5 28.7565 263.464 30.1418 261.764 31.8913C260.063 33.6408 258.734 35.7182 257.855 37.998C256.976 40.2778 256.567 42.7128 256.652 45.1559C256.591 47.5962 257.017 50.0241 257.903 52.297C258.79 54.57 260.119 56.6424 261.814 58.3926C263.509 60.1429 265.534 61.5357 267.772 62.4895C270.01 63.4433 272.415 63.9389 274.846 63.9471C277.367 64.0106 279.869 63.4928 282.159 62.4335C284.45 61.3742 286.468 59.8016 288.058 57.8366V63.201H294.009V27.1807H288.058V32.4921ZM288.058 45.3003C288.097 47.0042 287.791 48.6984 287.16 50.2804C286.529 51.8624 285.584 53.2994 284.384 54.5047C283.184 55.7099 281.753 56.6584 280.177 57.2927C278.602 57.927 276.915 58.234 275.218 58.1952C272.649 58.2156 270.133 57.4683 267.989 56.0483C265.845 54.6283 264.17 52.5999 263.177 50.2211C262.185 47.8424 261.92 45.221 262.415 42.6905C262.911 40.16 264.146 37.8349 265.962 36.011C267.778 34.1872 270.094 32.9472 272.614 32.4488C275.134 31.9503 277.745 32.2161 280.114 33.2121C282.483 34.2082 284.504 35.8895 285.918 38.0422C287.333 40.1948 288.078 42.7214 288.058 45.3003Z" fill="#222222"></path>
<path d="M311.177 42.9183L326.618 27.1812H318.325L306.184 39.6549V7.57422H300.23V63.2016H306.182V46.1769L322.855 63.2016H331.004L311.177 42.9183Z" fill="#222222"></path>
<path d="M22.3383 4.72003C22.4246 4.8524 22.3383 4.72003 23.7477 6.46004C25.157 8.20005 23.7477 17.5812 23.7477 17.5812C24.078 17.7659 24.4383 17.8906 24.8119 17.9494C25.1899 17.8902 25.5549 17.7656 25.8905 17.5812C25.8905 17.5812 24.8478 7.50694 25.8905 6.46004C26.4195 5.96548 26.8762 5.39832 27.2471 4.77538C27.6161 4.26631 27.815 3.65295 27.8152 3.02334C27.8158 2.55052 27.7057 2.08418 27.4937 1.66197C27.2817 1.23976 26.9738 0.873522 26.5949 0.59282C26.2159 0.312117 25.7765 0.124817 25.3122 0.0460478C24.8479 -0.0327217 24.3716 -0.000760272 23.9219 0.13936C23.4721 0.27948 23.0615 0.523832 22.7231 0.852678C22.3848 1.18152 22.1282 1.58566 21.974 2.03244C21.8199 2.47922 21.7726 2.95613 21.8358 3.42466C21.8991 3.8932 22.0712 4.34023 22.3383 4.72966V4.72003Z" fill="#222222"></path>
<path d="M45.18 32.6194H32.0451C31.3177 32.621 30.6182 32.3388 30.0941 31.8324C29.6722 31.4184 29.2096 30.9636 28.7302 30.4726C28.2314 29.9635 27.9367 29.288 27.9022 28.5747C27.8677 27.8614 28.0959 27.1603 28.5433 26.6051C31.2206 22.7545 33.9147 26.8458 33.9147 26.8458V26.8241C34.5134 27.5722 35.3362 28.1067 36.2612 28.3483C37.1862 28.5899 38.1641 28.5258 39.05 28.1654C39.9358 27.8051 40.6825 27.1678 41.1792 26.3479C41.6759 25.528 41.8963 24.5692 41.8076 23.6137C41.6763 22.467 41.1223 21.4112 40.2546 20.654C39.387 19.8969 38.2685 19.4932 37.1193 19.5224C35.9761 19.5245 34.8349 19.617 33.7062 19.7991C31.5164 19.681 29.3382 19.4019 27.189 18.964C28.4164 18.5393 29.5464 17.8716 30.5123 17.0007C31.4781 16.1297 32.2602 15.073 32.8121 13.8932C33.4062 14.3088 34.1301 14.4945 34.8499 14.416C35.5697 14.3374 36.237 14.0001 36.7284 13.4661C37.2198 12.9321 37.5021 12.2377 37.5233 11.511C37.5445 10.7843 37.3031 10.0744 36.8437 9.51248C36.3843 8.95056 35.7378 8.57454 35.0238 8.45387C34.3098 8.33321 33.5764 8.47604 32.9591 8.856C32.3417 9.23595 31.8822 9.82736 31.6653 10.521C31.4484 11.2146 31.4888 11.9636 31.7791 12.6297C31.0936 15.5321 28.3156 17.3106 24.936 18.3888C21.4389 17.3275 18.5363 15.5538 17.8388 12.6129C18.0918 12.0165 18.1466 11.3542 17.9952 10.724C17.8439 10.0939 17.4943 9.52954 16.9983 9.11458C16.5024 8.69962 15.8865 8.45615 15.2419 8.42027C14.5973 8.3844 13.9584 8.55803 13.4198 8.91542C12.8812 9.27281 12.4717 9.79494 12.2519 10.4044C12.0321 11.0139 12.0137 11.6782 12.1995 12.299C12.3852 12.9198 12.7653 13.4639 13.2833 13.8508C13.8013 14.2376 14.4296 14.4466 15.0752 14.4467C15.6931 14.447 16.2956 14.2535 16.7986 13.8932C17.356 15.0989 18.1542 16.1768 19.1438 17.0598C20.1334 17.9429 21.2931 18.6123 22.5511 19.0266C20.4817 19.4607 18.3837 19.7438 16.2736 19.8737C15.001 19.643 13.7103 19.5278 12.4171 19.5296C11.2679 19.5004 10.1494 19.9041 9.28176 20.6612C8.41411 21.4184 7.8601 22.4742 7.72875 23.6209C7.64019 24.5751 7.85983 25.5326 8.35517 26.3519C8.85051 27.1711 9.59525 27.8085 10.4793 28.1699C11.3633 28.5312 12.3397 28.5974 13.2641 28.3585C14.1884 28.1196 15.0117 27.5884 15.6121 26.8434V26.865C15.6121 26.865 18.1816 22.7521 20.9811 26.6244C21.4288 27.1793 21.6574 27.8802 21.6233 28.5935C21.5893 29.3067 21.295 29.9825 20.7966 30.4919C20.3172 30.9732 19.8546 31.4377 19.4303 31.8516C18.9074 32.3584 18.2084 32.6407 17.4817 32.6386H4.26765C3.1358 32.6386 2.0503 33.0901 1.24996 33.8937C0.449625 34.6973 0 35.7872 0 36.9236C0 38.0601 0.449625 39.15 1.24996 39.9536C2.0503 40.7572 3.1358 41.2087 4.26765 41.2087H16.0124C16.8081 41.2093 17.571 41.527 18.1336 42.0919C18.6963 42.6568 19.0126 43.4229 19.0133 44.2218V44.2363C18.9965 49.1699 10.0801 46.809 9.31309 46.821H9.25556C8.11256 46.8357 7.00786 47.2368 6.1198 47.9595C5.23175 48.6822 4.61218 49.6843 4.36113 50.804C4.20777 51.5353 4.21889 52.2918 4.39367 53.0183C4.56845 53.7447 4.90249 54.4229 5.37144 55.0033C5.84038 55.5837 6.4324 56.0516 7.10435 56.3731C7.7763 56.6946 8.51123 56.8615 9.25556 56.8615H9.35623C10.5331 56.8952 19.3249 57.2659 21.3239 60.729C20.9938 60.8167 20.7015 61.011 20.4923 61.282C20.2831 61.553 20.1685 61.8855 20.1662 62.2284C20.1668 62.6479 20.3333 63.0501 20.629 63.3466C20.9247 63.643 21.3255 63.8096 21.7433 63.8096C21.8008 63.8096 21.8488 63.7831 21.9039 63.7783C22.0739 64.4209 22.4507 64.9891 22.9757 65.3945C23.5006 65.7998 24.1443 66.0196 24.8065 66.0196C25.4688 66.0196 26.1124 65.7998 26.6374 65.3945C27.1623 64.9891 27.5391 64.4209 27.7092 63.7783C27.7683 63.794 27.8283 63.806 27.8889 63.8144C28.3068 63.8144 28.7076 63.6479 29.0033 63.3514C29.299 63.0549 29.4654 62.6528 29.4661 62.2332C29.4627 61.8665 29.331 61.5126 29.0939 61.2337C28.8568 60.9547 28.5295 60.7684 28.1694 60.7074C29.9598 57.5138 37.5172 56.9698 39.6744 56.8808L40.1178 56.864C41.4439 56.864 42.7156 56.335 43.6533 55.3935C44.591 54.4521 45.1177 53.1751 45.1177 51.8437C45.1177 50.5122 44.591 49.2353 43.6533 48.2938C42.7156 47.3523 41.4439 46.8234 40.1178 46.8234H39.9956C38.8906 46.7801 30.5902 49.064 30.607 44.2122C30.6079 43.8129 30.6873 43.4178 30.8405 43.0493C30.9936 42.6809 31.2177 42.3464 31.4997 42.065C31.7818 41.7836 32.1163 41.5607 32.4843 41.4093C32.8522 41.2578 33.2462 41.1806 33.6439 41.1822H45.3622C45.9579 41.1821 46.5469 41.0567 47.0914 40.8143C47.636 40.5718 48.124 40.2177 48.524 39.7745C48.924 39.3314 49.2273 38.8091 49.4142 38.2412C49.6012 37.6733 49.6677 37.0724 49.6095 36.4772C49.4744 35.3991 48.9475 34.4091 48.13 33.6972C47.3126 32.9852 46.2621 32.6014 45.18 32.6194ZM23.2534 32.6194C23.7327 32.138 24.2553 31.5941 24.7754 31.0213C25.2979 31.5941 25.8156 32.1428 26.2998 32.6194H23.2534ZM27.1962 22.9687C26.6772 23.5328 26.2043 24.1381 25.7821 24.7785C25.4705 25.2117 25.1277 25.6473 24.7754 26.0853C24.4254 25.6473 24.0947 25.0504 23.7807 24.6172C23.3728 24.013 22.8949 23.4596 22.3569 22.9687C21.5147 22.1247 20.5377 21.4283 19.4663 20.9086C21.2843 20.683 23.0819 20.3145 24.8425 19.8063C26.6078 20.2968 28.4085 20.6485 30.2283 20.858C29.1085 21.3849 28.0857 22.0986 27.2034 22.9687H27.1962Z" fill="#222222"></path>
</g>
<defs>
<clipPath id="clip0_168_1013">
<rect width="331" height="67" fill="white"></rect>
</clipPath>
</defs>
</svg>