<svg width="182" height="170" viewBox="0 0 182 170" fill="none" xmlns="http://www.w3.org/2000/svg">
<g clip-path="url(#clip0_168_1035)">
<path d="M28.6935 143.812C26.9156 143.709 25.1465 144.13 23.6041 145.023C22.0618 145.915 20.8134 147.24 20.0127 148.835C19.2701 147.28 18.0906 145.976 16.6192 145.084C15.1477 144.192 13.4484 143.75 11.7298 143.812C10.2613 143.749 8.79909 144.039 7.46456 144.656C6.13003 145.273 4.96172 146.201 4.05668 147.362V144.317H0V168.781H4.04853V155.267C4.17245 148.309 9.527 147.768 11.1656 147.768C14.8457 147.768 17.223 150.509 17.223 154.752V168.781H21.2209V156.304H21.2715C21.1256 155.132 21.2242 153.941 21.561 152.808C21.8978 151.676 22.4654 150.625 23.2281 149.724C23.8609 149.079 24.6203 148.573 25.4583 148.237C26.2964 147.901 27.1948 147.744 28.0967 147.774H28.1929C31.9659 147.774 34.4019 150.515 34.4019 154.758V168.787H38.4374V154.6C38.4374 147.942 34.7068 143.812 28.6935 143.812Z" fill="#222222"></path>
<path d="M47.4336 144.314H43.3867V168.778H47.4336V144.314Z" fill="#222222"></path>
<path d="M45.4093 133.28C44.8849 133.323 44.3844 133.518 43.9687 133.841C43.5529 134.165 43.2399 134.602 43.0676 135.1C42.8953 135.599 42.8712 136.136 42.9983 136.648C43.1254 137.16 43.3982 137.623 43.7834 137.983C44.1687 138.342 44.6497 138.581 45.1681 138.671C45.6864 138.761 46.2197 138.698 46.703 138.489C47.1863 138.281 47.5987 137.936 47.8901 137.497C48.1815 137.058 48.3392 136.544 48.3441 136.016C48.3391 135.641 48.2581 135.27 48.1062 134.927C47.9543 134.584 47.7345 134.275 47.4602 134.019C47.1859 133.764 46.8627 133.566 46.5102 133.439C46.1577 133.312 45.7832 133.258 45.4093 133.28Z" fill="#222222"></path>
<path d="M64.4985 143.813C63.0138 143.78 61.5412 144.088 60.1934 144.713C58.8457 145.338 57.6585 146.264 56.7227 147.42V144.315H52.6758V168.782H56.7227V155.268C56.6608 154.27 56.812 153.27 57.1661 152.336C57.5202 151.401 58.0692 150.553 58.7763 149.848C59.4833 149.143 60.3323 148.597 61.2665 148.248C62.2007 147.898 63.1986 147.752 64.1936 147.819C67.9438 147.819 70.4531 150.606 70.4531 154.753V168.782H74.5032V154.601C74.5032 148.048 70.5754 143.813 64.4985 143.813Z" fill="#222222"></path>
<path d="M85.0121 134.896H81.0157V144.314H76.7227V147.91H81.0157V168.778H85.0121V147.919H90.4156V144.323H85.0121V134.896Z" fill="#222222"></path>
<path d="M111.173 132.67C107.551 132.615 103.994 133.64 100.956 135.617C97.9165 137.593 95.5326 140.431 94.1068 143.769C92.681 147.107 92.2779 150.795 92.9486 154.364C93.6193 157.932 95.3336 161.22 97.8734 163.81C100.413 166.399 103.664 168.172 107.212 168.905C110.76 169.637 114.445 169.295 117.799 167.922C121.152 166.549 124.023 164.207 126.045 161.194C128.068 158.182 129.15 154.634 129.156 151.003C129.202 148.608 128.77 146.229 127.887 144.004C127.003 141.779 125.685 139.753 124.01 138.046C122.335 136.338 120.337 134.983 118.132 134.06C115.928 133.137 113.562 132.664 111.173 132.67ZM125.008 151.003C125.065 152.86 124.749 154.71 124.079 156.442C123.41 158.175 122.4 159.755 121.109 161.089C119.819 162.423 118.274 163.484 116.567 164.208C114.86 164.932 113.025 165.305 111.172 165.305C109.318 165.305 107.483 164.932 105.776 164.208C104.069 163.484 102.525 162.423 101.234 161.089C99.9436 159.755 98.9336 158.175 98.2638 156.442C97.5941 154.71 97.2783 152.86 97.3352 151.003C97.2714 149.141 97.5821 147.286 98.2488 145.547C98.9154 143.808 99.9243 142.222 101.215 140.883C102.507 139.543 104.053 138.478 105.764 137.75C107.474 137.023 109.313 136.648 111.172 136.648C113.03 136.648 114.869 137.023 116.579 137.75C118.29 138.478 119.837 139.543 121.128 140.883C122.419 142.222 123.428 143.808 124.094 145.547C124.761 147.286 125.072 149.141 125.008 151.003Z" fill="#222222"></path>
<path d="M152.79 147.925C151.702 146.6 150.327 145.541 148.77 144.829C147.212 144.116 145.514 143.769 143.802 143.812C142.146 143.795 140.504 144.114 138.974 144.751C137.445 145.388 136.06 146.328 134.903 147.517C133.746 148.705 132.842 150.116 132.244 151.664C131.646 153.212 131.368 154.866 131.425 156.525C131.384 158.183 131.674 159.832 132.277 161.375C132.88 162.919 133.784 164.327 134.937 165.515C136.09 166.704 137.468 167.65 138.99 168.298C140.513 168.945 142.149 169.282 143.802 169.288C145.517 169.331 147.219 168.979 148.777 168.26C150.335 167.54 151.708 166.472 152.79 165.138V168.781H156.838V144.317H152.79V147.925ZM152.79 156.623C152.816 157.781 152.609 158.931 152.179 160.006C151.749 161.08 151.107 162.056 150.291 162.875C149.474 163.693 148.501 164.337 147.429 164.768C146.357 165.199 145.21 165.407 144.055 165.381C142.308 165.395 140.596 164.887 139.138 163.923C137.679 162.959 136.54 161.581 135.864 159.965C135.189 158.35 135.009 156.57 135.346 154.851C135.684 153.132 136.524 151.553 137.759 150.315C138.994 149.076 140.569 148.234 142.284 147.895C143.998 147.557 145.774 147.737 147.386 148.414C148.998 149.09 150.372 150.232 151.334 151.694C152.297 153.156 152.803 154.872 152.79 156.623Z" fill="#222222"></path>
<path d="M168.513 155.004L179.017 144.316H173.375L165.117 152.788V131H161.066V168.78H165.115V157.217L176.457 168.78H182L168.513 155.004Z" fill="#222222"></path>
<path d="M86.0278 8.85841C86.1902 9.10703 86.0278 8.85841 88.6793 12.1267C91.3309 15.395 88.6793 33.0158 88.6793 33.0158C89.3009 33.3628 89.9787 33.5969 90.6815 33.7074C91.3927 33.5963 92.0793 33.3622 92.7107 33.0158C92.7107 33.0158 90.7492 14.0931 92.7107 12.1267C93.706 11.1978 94.5653 10.1324 95.2631 8.96237C95.9572 8.00616 96.3314 6.85408 96.3318 5.67147C96.3329 4.78335 96.1257 3.90742 95.7269 3.11438C95.3281 2.32134 94.7488 1.63342 94.0359 1.10617C93.323 0.578919 92.4964 0.22711 91.6228 0.0791553C90.7493 -0.0687991 89.8532 -0.00876525 89.0071 0.254426C88.1609 0.517616 87.3884 0.976588 86.7518 1.59427C86.1152 2.21195 85.6325 2.97104 85.3425 3.81023C85.0525 4.64943 84.9634 5.54522 85.0825 6.42528C85.2015 7.30535 85.5254 8.145 86.0278 8.87648V8.85841Z" fill="#222222"></path>
<path d="M129 61.2639H104.288C102.92 61.2671 101.604 60.737 100.618 59.7857C99.8241 59.0082 98.9537 58.1538 98.0519 57.2316C97.1134 56.2755 96.5589 55.0065 96.494 53.6667C96.4292 52.3269 96.8585 51.0101 97.7001 49.9673C102.737 42.7345 107.806 50.4193 107.806 50.4193V50.3786C108.932 51.7838 110.48 52.7877 112.22 53.2415C113.961 53.6953 115.8 53.5748 117.467 52.898C119.134 52.2212 120.538 51.0241 121.473 49.4841C122.407 47.944 122.822 46.1431 122.655 44.3483C122.408 42.1945 121.366 40.2114 119.733 38.7892C118.101 37.367 115.997 36.6087 113.835 36.6635C111.684 36.6676 109.537 36.8414 107.413 37.1834C103.294 36.9615 99.1956 36.4372 95.1523 35.6148C97.4614 34.817 99.5874 33.563 101.405 31.927C103.222 30.291 104.693 28.3062 105.731 26.0902C106.849 26.8707 108.211 27.2195 109.565 27.0721C110.919 26.9246 112.175 26.2909 113.099 25.288C114.024 24.285 114.555 22.9806 114.595 21.6156C114.635 20.2506 114.181 18.9172 113.316 17.8618C112.452 16.8063 111.236 16.1 109.892 15.8734C108.549 15.6467 107.169 15.915 106.008 16.6287C104.846 17.3424 103.982 18.4532 103.574 19.7561C103.166 21.059 103.242 22.4659 103.788 23.7169C102.498 29.1686 97.2717 32.5092 90.9135 34.5344C84.3343 32.5409 78.8734 29.2093 77.5612 23.6853C78.0371 22.5651 78.1403 21.321 77.8555 20.1375C77.5707 18.9539 76.913 17.8938 75.98 17.1144C75.0469 16.335 73.8882 15.8776 72.6755 15.8103C71.4628 15.7429 70.2607 16.069 69.2475 16.7403C68.2342 17.4116 67.4637 18.3923 67.0501 19.5371C66.6366 20.6819 66.602 21.9298 66.9515 23.0958C67.3011 24.2618 68.0161 25.2839 68.9906 26.0105C69.9651 26.7372 71.1473 27.1297 72.3618 27.1299C73.5243 27.1304 74.6578 26.7669 75.6041 26.0902C76.6528 28.3549 78.1546 30.3794 80.0163 32.0381C81.8781 33.6968 84.0599 34.9542 86.4266 35.7323C82.5334 36.5477 78.5864 37.0795 74.6165 37.3235C72.2223 36.8901 69.7939 36.6737 67.3609 36.6771C65.1989 36.6222 63.0947 37.3805 61.4623 38.8027C59.83 40.2249 58.7877 42.208 58.5405 44.3619C58.3739 46.1542 58.7872 47.9528 59.7191 49.4915C60.651 51.0303 62.0521 52.2276 63.7153 52.9063C65.3785 53.5851 67.2154 53.7093 68.9544 53.2606C70.6935 52.8119 72.2423 51.8142 73.3719 50.4148V50.4555C73.3719 50.4555 78.206 42.73 83.473 50.0034C84.3152 51.0457 84.7453 52.3622 84.6812 53.702C84.6172 55.0418 84.0635 56.3111 83.1258 57.2678C82.2239 58.1719 81.3536 59.0444 80.5554 59.8219C79.5716 60.7737 78.2566 61.3039 76.8893 61.3001H52.029C49.8996 61.3001 47.8574 62.1481 46.3516 63.6575C44.8459 65.1669 44 67.2141 44 69.3488C44 71.4834 44.8459 73.5306 46.3516 75.0401C47.8574 76.5495 49.8996 77.3975 52.029 77.3975H74.125C75.622 77.3987 77.0573 77.9953 78.1158 79.0564C79.1744 80.1176 79.7696 81.5564 79.7708 83.0571V83.0842C79.7392 92.3512 62.9643 87.9166 61.5213 87.9392H61.413C59.2626 87.9668 57.1843 88.7202 55.5135 90.0776C53.8428 91.4351 52.6772 93.3174 52.2048 95.4206C51.9163 96.7942 51.9372 98.2151 52.2661 99.5797C52.5949 100.944 53.2233 102.218 54.1056 103.308C54.9878 104.398 56.1017 105.277 57.3658 105.881C58.63 106.485 60.0127 106.798 61.413 106.799H61.6024C63.8165 106.862 80.357 107.558 84.1178 114.063C83.4968 114.228 82.947 114.593 82.5534 115.102C82.1598 115.611 81.9442 116.235 81.9398 116.879C81.941 117.667 82.2541 118.423 82.8105 118.98C83.3668 119.536 84.1208 119.849 84.907 119.849C85.0152 119.849 85.1054 119.799 85.2091 119.79C85.529 120.997 86.2379 122.065 87.2255 122.826C88.2131 123.588 89.4241 124 90.67 124C91.9159 124 93.1268 123.588 94.1145 122.826C95.1021 122.065 95.811 120.997 96.1308 119.79C96.2421 119.82 96.3551 119.843 96.4691 119.858C97.2552 119.858 98.0093 119.545 98.5656 118.989C99.1219 118.432 99.435 117.676 99.4362 116.888C99.4299 116.199 99.1821 115.535 98.736 115.011C98.29 114.487 97.6742 114.137 96.9967 114.022C100.365 108.024 114.583 107.002 118.642 106.835L119.476 106.803C121.971 106.803 124.363 105.81 126.127 104.041C127.892 102.273 128.883 99.8743 128.883 97.3734C128.883 94.8725 127.892 92.474 126.127 90.7056C124.363 88.9372 121.971 87.9437 119.476 87.9437H119.246C117.167 87.8624 101.551 92.1522 101.583 83.039C101.584 82.2891 101.734 81.5469 102.022 80.8548C102.31 80.1627 102.732 79.5344 103.262 79.0058C103.793 78.4772 104.422 78.0587 105.115 77.7742C105.807 77.4897 106.548 77.3448 107.296 77.3477H129.343C130.463 77.3474 131.571 77.112 132.596 76.6566C133.62 76.2012 134.538 75.536 135.291 74.7036C136.044 73.8712 136.614 72.8902 136.966 71.8236C137.318 70.7569 137.443 69.6283 137.333 68.5102C137.079 66.4853 136.088 64.6257 134.55 63.2884C133.012 61.9511 131.035 61.2301 129 61.2639ZM87.7479 61.2639C88.6498 60.3598 89.6328 59.3382 90.6114 58.2623C91.5944 59.3382 92.5684 60.3689 93.4793 61.2639H87.7479ZM95.1658 43.1368C94.1894 44.1965 93.2997 45.3333 92.5053 46.5362C91.9191 47.3499 91.2742 48.1681 90.6114 48.9908C89.953 48.1681 89.3307 47.047 88.7399 46.2334C87.9727 45.0984 87.0735 44.0589 86.0614 43.1368C84.4769 41.5516 82.6387 40.2436 80.6231 39.2673C84.0434 38.8436 87.4253 38.1514 90.7376 37.1969C94.0588 38.1183 97.4466 38.7788 100.87 39.1724C98.7634 40.162 96.8392 41.5025 95.1794 43.1368H95.1658Z" fill="#222222"></path>
</g>
<defs>
<clipPath id="clip0_168_1035">
<rect width="182" height="170" fill="white"></rect>
</clipPath>
</defs>
</svg>