<svg width="331" height="67" viewBox="0 0 331 67" fill="none" xmlns="http://www.w3.org/2000/svg">
<g clip-path="url(#clip0_168_967)">
<path d="M105.6 26.4C103 26.2 100.4 26.9 98.1 28.2C95.8 29.5 94 31.5 92.8 33.8C91.7 31.5 90 29.6 87.8 28.3C85.6 27 83.1 26.3 80.6 26.4C78.4 26.4 76.3 26.7 74.3 27.6C72.3 28.5 70.6 29.9 69.3 31.6V27.1H63.3V63.1H69.3V43.2C69.5 33 77.4 32.2 79.8 32.2C85.2 32.2 88.7 36.2 88.7 42.5V63.2H94.6V44.8C94.4 43.1 94.6 41.3 95 39.7C95.5 38 96.3 36.5 97.5 35.2C98.4 34.3 99.5 33.5 100.8 33C102 32.5 103.4 32.3 104.7 32.3H104.8C110.3 32.3 113.9 36.3 113.9 42.6V63.3H119.8V42.4C119.8 32.6 114.3 26.5 105.5 26.5L105.6 26.4Z" fill="white"></path>
<path d="M133.2 27.2001H127.3V63.2001H133.2V27.2001Z" fill="white"></path>
<path d="M130.2 10.9001C129.4 10.9001 128.7 11.3001 128.1 11.7001C127.5 12.2001 127 12.8001 126.8 13.6001C126.5 14.3001 126.5 15.1001 126.7 15.9001C126.9 16.7001 127.3 17.3001 127.9 17.9001C128.5 18.4001 129.2 18.8001 129.9 18.9001C130.7 19.0001 131.4 18.9001 132.2 18.6001C132.9 18.3001 133.5 17.8001 133.9 17.1001C134.3 16.5001 134.6 15.7001 134.6 14.9001C134.6 14.3001 134.5 13.8001 134.3 13.3001C134.1 12.8001 133.8 12.3001 133.4 12.0001C133 11.6001 132.5 11.3001 132 11.1001C131.5 10.9001 130.9 10.8001 130.4 10.9001H130.2Z" fill="white"></path>
<path d="M158.3 26.4C156.1 26.4 154 26.8001 152 27.7001C150 28.6001 148.3 30.0001 146.9 31.7001V27.1H141V63.1H146.9V43.2001C146.9 41.7001 147 40.3001 147.6 38.9001C148.1 37.5001 148.9 36.3001 150 35.2001C151 34.2001 152.3 33.4 153.7 32.8C155.1 32.3 156.5 32.1001 158 32.2001C163.5 32.2001 167.2 36.3001 167.2 42.4001V63.1H173.2V42.2001C173.2 32.6 167.4 26.3 158.5 26.3L158.3 26.4Z" fill="white"></path>
<path d="M188.4 13.3H182.5V27.2H176.2V32.5H182.5V63.2001H188.4V32.5H196.3V27.2H188.4V13.3Z" fill="white"></path>
<path d="M226.9 10C221.6 10 216.3 11.4 211.9 14.3C207.4 17.2 203.9 21.4 201.8 26.3C199.7 31.2 199.1 36.6 200.1 41.9C201.1 47.2 203.6 52 207.3 55.8C211 59.6 215.8 62.2 221 63.3C226.2 64.4 231.6 63.9 236.6 61.9C241.5 59.9 245.7 56.4 248.7 52C251.7 47.6 253.3 42.3 253.3 37C253.3 33.5 252.7 30 251.4 26.7C250.1 23.4 248.2 20.4 245.7 17.9C243.2 15.4 240.3 13.4 237.1 12C233.9 10.6 230.4 9.9 226.9 10ZM247.2 37C247.2 39.7 246.8 42.5 245.8 45C244.8 47.6 243.3 49.9 241.4 51.8C239.5 53.8 237.2 55.3 234.7 56.4C232.2 57.5 229.5 58 226.8 58C224.1 58 221.4 57.5 218.9 56.4C216.4 55.3 214.1 53.8 212.2 51.8C210.3 49.8 208.8 47.5 207.8 45C206.8 42.4 206.4 39.7 206.4 37C206.4 34.3 206.8 31.5 207.7 29C208.7 26.4 210.2 24.1 212.1 22.1C214 20.1 216.3 18.6 218.8 17.5C221.3 16.4 224 15.9 226.7 15.9C229.4 15.9 232.1 16.5 234.6 17.5C237.1 18.6 239.4 20.1 241.3 22.1C243.2 24.1 244.7 26.4 245.7 29C246.7 31.6 247.1 34.3 247 37H247.2Z" fill="white"></path>
<path d="M288.1 32.5C286.5 30.5 284.5 29 282.2 27.9C279.9 26.9 277.4 26.3 274.9 26.4C272.5 26.4 270.1 26.8 267.8 27.8C265.6 28.7 263.5 30.1 261.8 31.9C260.1 33.6 258.8 35.7 257.9 38C257 40.3 256.6 42.7 256.7 45.2C256.7 47.6 257.1 50.1 258 52.3C258.9 54.6 260.2 56.6 261.9 58.4C263.6 60.2 265.6 61.5 267.9 62.5C270.1 63.5 272.5 63.9 275 64C277.5 64 280 63.5 282.3 62.5C284.6 61.4 286.6 59.9 288.2 57.9V63.3H294.2V27.2H288.2V32.5H288.1ZM288.1 45.3C288.1 47 287.8 48.7 287.2 50.3C286.6 51.9 285.6 53.3 284.4 54.5C283.2 55.7 281.8 56.7 280.2 57.3C278.6 57.9 276.9 58.2 275.2 58.2C272.6 58.2 270.1 57.5 268 56.1C265.9 54.7 264.2 52.7 263.2 50.3C262.2 47.9 261.9 45.3 262.4 42.8C262.9 40.3 264.1 37.9 265.9 36.1C267.7 34.3 270 33 272.6 32.5C275.1 32 277.7 32.3 280.1 33.3C282.5 34.3 284.5 36 285.9 38.1C287.3 40.3 288.1 42.8 288 45.4L288.1 45.3Z" fill="white"></path>
<path d="M311.2 42.9L326.6 27.2H318.3L306.2 39.7V7.59998H300.2V63.2H306.2V46.2L322.9 63.2H331L311.2 42.9Z" fill="white"></path>
<path d="M22.2999 4.70002C22.2999 4.80002 22.3 4.70002 23.7 6.40002C25.1 8.10002 23.7 17.5 23.7 17.5C24 17.7 24.3999 17.8 24.7999 17.9C25.1999 17.9 25.4999 17.7 25.9 17.5C25.9 17.5 24.9 7.40002 25.9 6.40002C26.4 5.90002 26.8999 5.30002 27.2999 4.70002C27.6999 4.20002 27.9 3.60002 27.9 2.90002C27.9 2.40002 27.8 2.00002 27.6 1.50002C27.4 1.10002 27.1 0.700024 26.7 0.400024C26.3 0.100024 25.9 -0.0999756 25.4 -0.0999756C24.9 -0.0999756 24.5 -0.0999756 24 -0.0999756C23.6 2.44156e-05 23.0999 0.300024 22.7999 0.600024C22.4999 0.900024 22.2 1.30002 22.1 1.80002C21.9 2.20002 21.9 2.70002 22 3.20002C22 3.70002 22.2 4.10002 22.5 4.50002L22.2999 4.70002Z" fill="white"></path>
<path d="M45.2 32.6H32.1C31.4 32.6 30.7 32.3 30.1 31.8C29.7 31.4 29.2 30.9 28.7 30.4C28.2 29.9 27.9 29.2 27.9 28.5C27.9 27.8 28.1 27.1 28.5 26.5C31.2 22.6 33.9 26.7 33.9 26.7C34.5 27.4 35.3 28 36.2 28.2C37.1 28.4 38.1 28.4 39 28C39.9 27.6 40.6 27 41.1 26.2C41.6 25.4 41.8 24.4 41.7 23.5C41.6 22.4 41 21.3 40.1 20.5C39.2 19.7 38.1 19.3 37 19.4C35.9 19.4 34.7 19.4 33.6 19.7C31.4 19.6 29.2 19.3 27.1 18.9C28.3 18.5 29.5 17.8 30.4 16.9C31.4 16 32.1 15 32.7 13.8C33.3 14.2 34 14.4 34.7 14.3C35.4 14.3 36.1 13.9 36.6 13.4C37.1 12.9 37.4 12.2 37.4 11.4C37.4 10.7 37.2 9.99998 36.7 9.39998C36.2 8.79998 35.6 8.49998 34.9 8.29998C34.2 8.19998 33.5 8.29998 32.8 8.69998C32.2 9.09998 31.7 9.69998 31.5 10.4C31.3 11.1 31.3 11.8 31.6 12.5C30.9 15.4 28.1 17.2 24.8 18.3C21.3 17.2 18.4 15.5 17.7 12.5C18 11.9 18 11.2 17.9 10.6C17.7 9.99998 17.4 9.39998 16.9 8.99998C16.4 8.59998 15.8 8.29998 15.1 8.29998C14.5 8.29998 13.8 8.39998 13.3 8.79998C12.8 9.19998 12.4 9.69998 12.1 10.3C11.9 10.9 11.9 11.6 12.1 12.2C12.3 12.8 12.7 13.4 13.2 13.8C13.7 14.2 14.3 14.4 15 14.4C15.6 14.4 16.2 14.2 16.7 13.8C17.3 15 18.1 16.1 19 17C20 17.9 21.1 18.6 22.4 19C20.3 19.4 18.2 19.7 16.1 19.8C14.8 19.6 13.5 19.5 12.2 19.5C11.1 19.5 9.89998 19.9 9.09998 20.6C8.19998 21.4 7.69998 22.4 7.49998 23.6C7.49998 24.6 7.59998 25.5 8.09998 26.3C8.59998 27.1 9.29998 27.8 10.2 28.1C11.1 28.5 12.1 28.5 13 28.3C13.9 28.1 14.7 27.5 15.3 26.8C15.3 26.8 17.9 22.7 20.7 26.6C21.1 27.2 21.4 27.9 21.3 28.6C21.3 29.3 21 30 20.5 30.5C20 31 19.6 31.4 19.1 31.9C18.6 32.4 17.9 32.7 17.2 32.7H4.29998C3.19998 32.7 2.09998 33.2 1.29998 34C0.499976 34.8 0.0999756 35.9 0.0999756 37C0.0999756 38.1 0.499976 39.2 1.29998 40C2.09998 40.8 3.19998 41.3 4.29998 41.3H16C16.8 41.3 17.6 41.6 18.1 42.2C18.7 42.8 19 43.5 19 44.3C19 49.2 10.1 46.9 9.29998 46.9C8.19998 46.9 7.09998 47.3 6.19998 48C5.29998 48.7 4.69998 49.7 4.39998 50.8C4.19998 51.5 4.29998 52.3 4.39998 53C4.59998 53.7 4.89998 54.4 5.39998 55C5.89998 55.6 6.49998 56 7.09998 56.4C7.69998 56.8 8.49998 56.9 9.29998 56.9H9.39997C10.6 56.9 19.4 57.3 21.4 60.8C21.1 60.8 20.8 61.1 20.6 61.4C20.4 61.7 20.3 62 20.3 62.3C20.3 62.7 20.5 63.1 20.8 63.4C21.1 63.7 21.5 63.9 21.9 63.9C22.3 63.9 22 63.9 22.1 63.9C22.3 64.5 22.6 65.1 23.2 65.5C23.7 65.9 24.4 66.1 25 66.1C25.6 66.1 26.3 65.9 26.8 65.5C27.3 65.1 27.7 64.5 27.9 63.9C27.9 63.9 28 63.9 28.1 63.9C28.5 63.9 28.9 63.7 29.2 63.4C29.5 63.1 29.7 62.7 29.7 62.3C29.7 61.9 29.6 61.6 29.3 61.3C29.1 61 28.7 60.8 28.4 60.8C30.2 57.6 37.7 57.1 39.9 57H40.3C41.6 57 42.9 56.5 43.8 55.5C44.7 54.6 45.3 53.3 45.3 52C45.3 50.7 44.8 49.4 43.8 48.5C42.9 47.6 41.6 47 40.3 47H40.2C39.1 47 30.8 49.2 30.8 44.4C30.8 44 30.8 43.6 31 43.2C31.2 42.8 31.4 42.5 31.7 42.2C32 41.9 32.3 41.7 32.7 41.5C33.1 41.3 33.5 41.3 33.9 41.3H45.6C46.2 41.3 46.8 41.2 47.3 40.9C47.8 40.7 48.3 40.3 48.7 39.9C49.1 39.5 49.4 38.9 49.6 38.4C49.8 37.8 49.9 37.2 49.8 36.6C49.7 35.5 49.1 34.5 48.3 33.8C47.5 33.1 46.4 32.7 45.3 32.7L45.2 32.6ZM23.3 32.6C23.8 32.1 24.3 31.6 24.8 31C25.3 31.6 25.8 32.1 26.3 32.6H23.3ZM27.2 23C26.7 23.6 26.2 24.2 25.8 24.8C25.5 25.2 25.1 25.7 24.8 26.1C24.4 25.7 24.1 25.1 23.8 24.6C23.4 24 22.9 23.4 22.4 23C21.6 22.2 20.6 21.5 19.5 20.9C21.3 20.7 23.1 20.3 24.9 19.8C26.7 20.3 28.5 20.6 30.3 20.9C29.2 21.4 28.2 22.1 27.3 23H27.2Z" fill="white"></path>
</g>
<defs>
<clipPath id="clip0_168_967">
<rect width="331" height="67" fill="white"></rect>
</clipPath>
</defs>
</svg>